<svg version="1.1" id="Layer_1" xmlns="http://www.w3.org/2000/svg" xmlns:xlink="http://www.w3.org/1999/xlink" x="0px" y="0px"
	 width="100%" viewBox="0 0 160 160" enable-background="new 0 0 160 160" xml:space="preserve">
<path fill="#D9D9D8" opacity="1.000000" stroke="none" 
	d="
M63.000000,1.000001 
	C74.687561,1.000000 86.375122,1.000000 98.203140,1.313373 
	C104.130814,3.848003 110.157852,5.594254 115.663208,8.373784 
	C137.981873,19.641994 152.906982,37.093338 159.080002,61.628288 
	C159.226288,62.209743 160.338379,62.548199 161.000000,63.000000 
	C161.000000,74.687561 161.000000,86.375122 160.686630,98.203125 
	C158.151810,104.130829 156.405441,110.157967 153.625626,115.663277 
	C142.356598,137.980957 124.905457,152.906342 100.371071,159.080048 
	C99.789810,159.226303 99.451591,160.338409 99.000000,161.000000 
	C87.312439,161.000000 75.624878,161.000000 63.796875,160.686615 
	C57.866314,158.149612 51.837814,156.398590 46.327869,153.619476 
	C24.013710,142.364655 9.107843,124.912735 2.920857,100.400696 
	C2.771719,99.809830 1.661799,99.461464 1.000001,99.000000 
	C1.000000,87.312439 1.000000,75.624878 1.317186,63.790031 
	C3.856430,57.854786 5.603190,51.826778 8.383876,46.320953 
	C19.652079,24.009628 37.100521,9.089492 61.629551,2.919506 
	C62.210552,2.773362 62.548622,1.661452 63.000000,1.000001 
M122.492531,53.797562 
	C121.287880,53.258514 120.089508,52.268436 118.877579,52.251549 
	C108.894730,52.112453 98.853180,51.498379 88.942467,52.347557 
	C80.967819,53.030849 78.290848,60.605282 82.906670,67.143944 
	C92.983101,81.417992 103.195938,95.596779 113.156754,109.950706 
	C115.673531,113.577461 118.892708,115.583511 123.056976,115.744881 
	C129.373413,115.989639 135.719223,116.027229 142.029892,115.706680 
	C147.710068,115.418159 150.910202,111.943108 151.031754,106.376373 
	C151.169846,100.052261 151.015793,93.722305 151.057480,87.395348 
	C151.085770,83.102615 148.786728,80.763557 144.761063,80.525406 
	C139.783691,80.230949 134.771835,80.326935 129.782516,80.489319 
	C125.915482,80.615173 123.333778,82.831100 123.319908,86.698639 
	C123.306122,90.540237 125.804398,92.684059 129.698364,92.994576 
	C130.655029,93.070862 131.614151,93.116356 132.916824,93.197464 
	C132.834976,94.893959 132.768143,96.279358 132.708801,97.509689 
	C128.578629,98.727638 126.183899,97.401306 124.054283,94.121231 
	C119.890007,87.707352 115.254883,81.599747 110.837982,75.348885 
	C109.758186,73.820747 108.768471,72.228958 107.257202,69.938866 
	C110.860542,69.938866 113.337631,69.890778 115.812172,69.949623 
	C119.995560,70.049103 123.357132,68.643494 125.206741,64.702560 
	C127.052032,60.770828 126.191483,57.267376 122.492531,53.797562 
M37.046509,60.420822 
	C32.885658,54.454796 27.959076,52.889961 23.268547,56.044514 
	C18.527615,59.232975 18.139069,64.322044 22.390251,70.443481 
	C31.788322,83.976112 41.237240,97.473808 50.735558,110.936272 
	C54.497948,116.268906 59.421890,117.412239 63.992767,114.248337 
	C68.485954,111.138229 69.013260,106.154243 65.220306,100.692612 
	C56.011871,87.432976 46.726120,74.227043 37.046509,60.420822 
M63.383652,53.754910 
	C59.043262,52.022194 55.487812,53.284809 52.803936,56.865170 
	C50.001549,60.603626 50.780659,64.300034 53.331879,67.932030 
	C63.097221,81.834267 72.771767,95.800362 82.557068,109.688461 
	C85.951469,114.506081 91.409340,115.722717 95.561951,112.835335 
	C99.964043,109.774483 100.510193,104.374153 96.922272,99.219177 
	C90.451965,89.922905 84.083366,80.553032 77.457916,71.368538 
	C73.197083,65.461975 68.553200,59.831718 63.383652,53.754910 
z"/>
<path fill="#000000" opacity="1.000000" stroke="none" 
	d="
M62.531342,1.000001 
	C62.548622,1.661452 62.210552,2.773362 61.629551,2.919506 
	C37.100521,9.089492 19.652079,24.009628 8.383876,46.320953 
	C5.603190,51.826778 3.856430,57.854786 1.317186,63.321373 
	C1.000000,42.406513 1.000000,21.813030 1.000000,1.000000 
	C21.353703,1.000000 41.708191,1.000000 62.531342,1.000001 
z"/>
<path fill="#000000" opacity="1.000000" stroke="none" 
	d="
M161.000000,62.531342 
	C160.338379,62.548199 159.226288,62.209743 159.080002,61.628288 
	C152.906982,37.093338 137.981873,19.641994 115.663208,8.373784 
	C110.157852,5.594254 104.130814,3.848003 98.671799,1.313373 
	C119.593483,1.000000 140.186966,1.000000 161.000000,1.000000 
	C161.000000,21.353703 161.000000,41.708191 161.000000,62.531342 
z"/>
<path fill="#000000" opacity="1.000000" stroke="none" 
	d="
M1.000001,99.468658 
	C1.661799,99.461464 2.771719,99.809830 2.920857,100.400696 
	C9.107843,124.912735 24.013710,142.364655 46.327869,153.619476 
	C51.837814,156.398590 57.866314,158.149612 63.328217,160.686615 
	C42.406513,161.000000 21.813025,161.000000 1.000000,161.000000 
	C1.000000,140.646301 1.000000,120.291809 1.000001,99.468658 
z"/>
<path fill="#000000" opacity="1.000000" stroke="none" 
	d="
M99.468658,161.000000 
	C99.451591,160.338409 99.789810,159.226303 100.371071,159.080048 
	C124.905457,152.906342 142.356598,137.980957 153.625626,115.663277 
	C156.405441,110.157967 158.151810,104.130829 160.686630,98.671783 
	C161.000000,119.593483 161.000000,140.186966 161.000000,161.000000 
	C140.646301,161.000000 120.291809,161.000000 99.468658,161.000000 
z"/>
<path fill="#585858" opacity="1.000000" stroke="none" 
	d="
M122.819824,54.021706 
	C126.191483,57.267376 127.052032,60.770828 125.206741,64.702560 
	C123.357132,68.643494 119.995560,70.049103 115.812172,69.949623 
	C113.337631,69.890778 110.860542,69.938866 107.257202,69.938866 
	C108.768471,72.228958 109.758186,73.820747 110.837982,75.348885 
	C115.254883,81.599747 119.890007,87.707352 124.054283,94.121231 
	C126.183899,97.401306 128.578629,98.727638 132.708801,97.509689 
	C132.768143,96.279358 132.834976,94.893959 132.916824,93.197464 
	C131.614151,93.116356 130.655029,93.070862 129.698364,92.994576 
	C125.804398,92.684059 123.306122,90.540237 123.319908,86.698639 
	C123.333778,82.831100 125.915482,80.615173 129.782516,80.489319 
	C134.771835,80.326935 139.783691,80.230949 144.761063,80.525406 
	C148.786728,80.763557 151.085770,83.102615 151.057480,87.395348 
	C151.015793,93.722305 151.169846,100.052261 151.031754,106.376373 
	C150.910202,111.943108 147.710068,115.418159 142.029892,115.706680 
	C135.719223,116.027229 129.373413,115.989639 123.056976,115.744881 
	C118.892708,115.583511 115.673531,113.577461 113.156754,109.950706 
	C103.195938,95.596779 92.983101,81.417992 82.906670,67.143944 
	C78.290848,60.605282 80.967819,53.030849 88.942467,52.347557 
	C98.853180,51.498379 108.894730,52.112453 118.877579,52.251549 
	C120.089508,52.268436 121.287880,53.258514 122.819824,54.021706 
z"/>
<path fill="#C41F45" opacity="1.000000" stroke="none" 
	d="
M37.259018,60.710152 
	C46.726120,74.227043 56.011871,87.432976 65.220306,100.692612 
	C69.013260,106.154243 68.485954,111.138229 63.992767,114.248337 
	C59.421890,117.412239 54.497948,116.268906 50.735558,110.936272 
	C41.237240,97.473808 31.788322,83.976112 22.390251,70.443481 
	C18.139069,64.322044 18.527615,59.232975 23.268547,56.044514 
	C27.959076,52.889961 32.885658,54.454796 37.259018,60.710152 
z"/>
<path fill="#F2C24E" opacity="1.000000" stroke="none" 
	d="
M63.732330,53.916264 
	C68.553200,59.831718 73.197083,65.461975 77.457916,71.368538 
	C84.083366,80.553032 90.451965,89.922905 96.922272,99.219177 
	C100.510193,104.374153 99.964043,109.774483 95.561951,112.835335 
	C91.409340,115.722717 85.951469,114.506081 82.557068,109.688461 
	C72.771767,95.800362 63.097221,81.834267 53.331879,67.932030 
	C50.780659,64.300034 50.001549,60.603626 52.803936,56.865170 
	C55.487812,53.284809 59.043262,52.022194 63.732330,53.916264 
z"/>
</svg>